<svg xmlns="http://www.w3.org/2000/svg" width="160" height="40" viewBox="0 0 160 40"><rect width="100%" height="100%" fill="#808080"/><path fill="#ffffff" d="M43.895 13.37v3.66h.62q1.04 0 1.41-.46.37-.47.37-1.48 0-1.72-1.89-1.72zm0 5.79v4.37h.68q1.05 0 1.47-.51t.42-1.61q0-1.23-.43-1.74t-1.5-.51zm1.27 6.62h-4.48V11.21h3.79q.82 0 1.46.08.63.08 1.26.33t1.04.66q.41.4.65 1.11.23.65.22 1.51v.12q-.03 2.55-2.13 2.93 1.26.17 1.91 1.05.66.89.68 2.46v.09q-.01 2.14-1.11 3.18-1.15 1.05-3.29 1.05m7.76.18q-.92 0-1.42-.68-.49-.68-.49-1.74v-8.17h2.94v7.82q0 .38.13.58.14.2.47.19.35-.01.83-.32v-8.27h2.94v10.41h-2.94v-.96q-1.2 1.14-2.46 1.14m10.19-12.34h-2.95v-2.06h2.95zm0 12.16h-2.93V15.37h2.93zm4.89 0h-2.93V11.21h2.93zm5.41-1.71q.3 0 .76-.25v-6.55q-.39-.23-.75-.23-.38 0-.57.32-.18.31-.18.81v4.74q0 .51.17.84.18.32.57.32m-1.27 1.89q-1.18 0-1.8-.81-.62-.82-.62-2.43v-4.23q0-1.48.62-2.39.62-.9 1.8-.9 1.08 0 2.03.82v-4.81h2.94v14.57h-2.94v-.79q-.99.97-2.03.97m15.29-.18h-3.71V11.21h3.66q1.43 0 2.38.25.94.26 1.51.84.56.58.79 1.42t.23 2.1v5.26q0 1.27-.24 2.13-.23.86-.79 1.45t-1.49.86q-.94.26-2.34.26m-.5-12.32v10.09h.5q.36 0 .62-.05t.43-.17q.18-.13.28-.26.1-.14.15-.4.04-.26.06-.49.01-.23.01-.63v-6.26q0-.56-.04-.86-.05-.3-.21-.54-.15-.25-.47-.34-.31-.09-.84-.09zm10.35 10.48q.21 0 .43-.14.23-.15.37-.35V20.6q-.71.35-1.16.99t-.45 1.25q0 .51.23.8.23.3.58.3m-1.07 2.02q-1.1-.01-1.76-.78-.65-.77-.65-1.76 0-.51.12-.95.13-.44.31-.77.18-.32.51-.63.32-.31.59-.5.26-.19.7-.4.43-.22.69-.32.27-.11.72-.28t.64-.25v-1.03q0-.44-.13-.68-.14-.23-.49-.23-.6 0-.63.82l-.07.77-2.74-.11q0-.02.01-.17v-.17q.14-1.7 1.06-2.51.93-.81 2.65-.81 1.54 0 2.35.85.8.85.8 2.28v4.84q0 1 .18 2.61h-2.61q-.22-1.27-.24-1.48-.21.72-.72 1.19t-1.29.47m9.4-12.34h-2.95v-2.06h2.95zm0 12.16h-2.94V15.37h2.94zm4.89 0h-2.94V11.21h2.94zm2.55 3.01h-.4v-2.03q.97 0 1.34-.19.33-.17.33-.69 0-.06-.01-.13-.05-.44-.39-1.63-.09-.41-1.21-4.37t-1.21-4.38h2.77l1.29 6.01.98-6.01h2.77l-2.45 10.97q-.55 2.45-3.72 2.45z"/></svg>