<svg xmlns="http://www.w3.org/2000/svg" width="160" height="40" viewBox="0 0 160 40"><rect width="100%" height="100%" fill="#ffffff"/><path fill="#000000" d="M37.64 13.37v3.66h.62q1.03 0 1.41-.46.37-.47.37-1.48 0-1.72-1.89-1.72zm0 5.79v4.37h.68q1.04 0 1.47-.51.42-.51.42-1.61 0-1.23-.43-1.74t-1.51-.51zm1.27 6.62h-4.49V11.21h3.8q.82 0 1.46.08.63.08 1.26.33t1.04.66q.41.4.65 1.11.23.65.22 1.51v.12q-.03 2.55-2.13 2.93 1.25.17 1.91 1.05.66.89.68 2.46v.09q-.01 2.14-1.12 3.18-1.14 1.05-3.28 1.05m7.76.18q-.93 0-1.42-.68t-.49-1.74v-8.17h2.94v7.82q0 .38.13.58.14.2.46.19.35-.01.84-.32v-8.27h2.93v10.41h-2.93v-.96q-1.21 1.14-2.46 1.14m10.19-12.34h-2.95v-2.06h2.95zm0 12.16h-2.93V15.37h2.93zm4.89 0h-2.94V11.21h2.94zm5.4-1.71q.31 0 .77-.25v-6.55q-.39-.23-.75-.23-.38 0-.57.32-.18.31-.18.81v4.74q0 .51.17.84.18.32.56.32m-1.26 1.89q-1.18 0-1.8-.81-.62-.82-.62-2.43v-4.23q0-1.48.62-2.39.62-.9 1.8-.9 1.08 0 2.03.82v-4.81h2.93v14.57h-2.93v-.79q-.99.97-2.03.97m15.28-.18h-3.71V11.21h3.67q1.43 0 2.38.25.94.26 1.5.84.57.58.79 1.42.23.84.23 2.1v5.26q0 1.27-.23 2.13t-.79 1.45-1.49.86q-.94.26-2.35.26m-.49-12.32v10.09h.49q.37 0 .63-.05t.43-.17q.17-.13.27-.26.11-.14.15-.4.05-.26.07-.49.01-.23.01-.63v-6.26q0-.56-.05-.86-.04-.3-.2-.54-.16-.25-.47-.34t-.85-.09zm10.35 10.48q.21 0 .43-.14.22-.15.37-.35V20.6q-.71.35-1.16.99t-.45 1.25q0 .51.23.8.22.3.58.3m-1.07 2.02q-1.11-.01-1.76-.78-.66-.77-.66-1.76 0-.51.13-.95t.31-.77q.18-.32.51-.63.32-.31.58-.5.27-.19.7-.4.44-.22.7-.32.27-.11.72-.28t.64-.25v-1.03q0-.44-.14-.68-.13-.23-.48-.23-.6 0-.63.82l-.07.77-2.75-.11q0-.02.01-.17t.01-.17q.13-1.7 1.06-2.51t2.65-.81q1.54 0 2.34.85.81.85.81 2.28v4.84q0 1 .18 2.61h-2.61q-.23-1.27-.24-1.48-.22.72-.72 1.19-.51.47-1.29.47m9.4-12.34H96.4v-2.06h2.96zm0 12.16h-2.94V15.37h2.94zm4.88 0h-2.93V11.21h2.93zm2.56 3.01h-.4v-2.03q.96 0 1.33-.19.34-.17.34-.69 0-.06-.01-.13-.05-.44-.39-1.63-.09-.41-1.21-4.37t-1.21-4.38h2.76l1.3 6.01.98-6.01h2.77l-2.45 10.97q-.55 2.45-3.72 2.45zm10.05-3.01h-2.79v-2.76h2.79zm4.37 0h-2.79v-2.76h2.79zm4.36 0h-2.78v-2.76h2.78z"/></svg>